PathFileType  4	(X/Y/Z) C:\Users\antoi\Documents\MyRepositories\mobilecap\ResultsAnalysis
DataRate	CameraRate	NumFrames	NumMarkers	Units	OrigDataRate	OrigDataStartFrame	OrigNumFrames
100.0	100.0	6	51	mm	100.0	170	271
Frame#	Time	r_knee			r_shank_antsup			r_ankle			r_calc			r_5meta			r_toe			L_knee			L_shank_antsup			L_ankle			L_calc			L_5meta			L_toe			r_sh2			r_sh3			r_sh4			L_sh2			L_sh3			r_thigh1			r_thigh2			r_thigh3			r_thigh4			r_thigh5			L_thigh1			L_thigh2			L_thigh3			L_thigh4			r.ASIS			r.PSIS			L.ASIS			L.PSIS			C7			R_Shoulder			L_Shoulder			R_Sternum			L_Sternum			R_humerus			R_elbow_med			R_elbow_lat			R_forearm			R_wrist_radius			R_wrist_ulna			L_humerus			L_elbow_med			L_elbow_lat			L_forearm			L_wrist_radius			L_wrist_ulna			R_HJC			L_HJC			R_HJC_reg			L_HJC_reg			
		X1	Y1	Z1	X2	Y2	Z2	X3	Y3	Z3	X4	Y4	Z4	X5	Y5	Z5	X6	Y6	Z6	X7	Y7	Z7	X8	Y8	Z8	X9	Y9	Z9	X10	Y10	Z10	X11	Y11	Z11	X12	Y12	Z12	X13	Y13	Z13	X14	Y14	Z14	X15	Y15	Z15	X16	Y16	Z16	X17	Y17	Z17	X18	Y18	Z18	X19	Y19	Z19	X20	Y20	Z20	X21	Y21	Z21	X22	Y22	Z22	X23	Y23	Z23	X24	Y24	Z24	X25	Y25	Z25	X26	Y26	Z26	X27	Y27	Z27	X28	Y28	Z28	X29	Y29	Z29	X30	Y30	Z30	X31	Y31	Z31	X32	Y32	Z32	X33	Y33	Z33	X34	Y34	Z34	X35	Y35	Z35	X36	Y36	Z36	X37	Y37	Z37	X38	Y38	Z38	X39	Y39	Z39	X40	Y40	Z40	X41	Y41	Z41	X42	Y42	Z42	X43	Y43	Z43	X44	Y44	Z44	X45	Y45	Z45	X46	Y46	Z46	X47	Y47	Z47	X48	Y48	Z48	X49	Y49	Z49	X50	Y50	Z50	X51	Y51	Z51	

170	1.69000000	-93.52341	412.00732	-416.36548	-55.53553	342.67978	-411.16353	-272.95420	94.93175	-395.54065	-338.32298	65.14386	-437.57118	-180.96050	43.87854	-356.88852	-134.29138	54.49335	-408.95546	-60.77434	404.29740	-744.99122	-41.63841	310.24608	-732.59547	-247.19343	97.06918	-775.39013	-319.52546	59.96775	-738.57581	-160.07546	44.85674	-810.87594	-106.79210	55.68278	-757.74334	-121.94412	251.13809	-398.15933	-110.90078	391.43370	-385.35349	-187.26743	298.76495	-376.10268	-97.56311	363.92715	-777.61549	-159.96753	259.91245	-797.99589	-285.49782	558.37163	-400.17187	-182.37763	515.68962	-401.76036	-227.07683	414.13838	-426.07853	-334.10856	461.65668	-413.14948	-190.40501	445.30476	-400.17098	-275.74773	567.11344	-790.73891	-156.58491	508.24050	-763.62779	-334.04147	470.58229	-788.10290	-212.46755	409.62740	-748.19310	-292.54316	618.14016	-492.15116	-457.86049	729.12803	-570.40516	-283.56852	613.95651	-702.32028	-455.65323	725.57475	-651.17643	-59.88788	977.10427	-597.05703	-23.69947	924.14069	-455.64203	-1.24289	913.49468	-727.72462	8.56085	850.48435	-563.14781	9.94217	848.38153	-602.79262	-96.50179	869.70918	-372.62546	-319.90792	909.08655	-349.87674	-290.22909	885.69772	-290.04699	-323.37974	796.03696	-270.21501	-413.66362	687.10421	-257.85640	-433.31313	709.08844	-234.29276	-66.63760	882.91843	-817.41131	-286.23881	910.25051	-862.13297	-247.82650	887.07388	-915.76319	-312.07816	798.83801	-940.63919	-407.40336	720.67792	-953.04680	-423.52263	740.84857	-976.73980	-400.68601	572.69087	-496.59934	-390.65836	569.69098	-703.84145	-380.18677	591.24623	-521.82793	-376.40152	585.14585	-660.50777	
171	1.70000000	-94.67847	412.37741	-416.52292	-56.26732	343.29190	-411.02939	-273.07365	94.81535	-395.74526	-338.37252	65.06158	-437.77779	-181.08362	43.86705	-356.92900	-134.38551	54.62643	-408.84391	-61.24214	404.17778	-745.24931	-42.07601	310.26250	-732.73750	-247.46955	96.79318	-775.44578	-319.67357	59.72739	-738.97495	-160.13695	44.79036	-811.02053	-106.94359	55.77212	-757.76913	-122.61618	251.62730	-398.00674	-112.52103	391.20458	-386.53394	-188.25611	299.24338	-376.41454	-98.01339	363.99201	-777.62522	-160.35511	259.89817	-798.14944	-287.12907	558.53999	-400.52831	-184.07018	515.54863	-401.67711	-228.76796	414.45291	-426.66344	-335.80270	461.78876	-414.65126	-192.16756	445.16749	-400.67418	-275.57546	566.75314	-791.55274	-156.59714	507.94715	-764.63511	-334.11717	470.53504	-789.00019	-212.65895	409.47944	-748.51297	-291.46492	617.54335	-492.26450	-455.35629	730.90225	-571.96665	-282.66855	614.04977	-703.70513	-452.40818	727.19108	-652.68640	-53.38826	970.61776	-597.76037	-16.91517	916.92301	-455.72746	5.65713	905.57101	-728.38667	13.65235	842.72341	-564.00173	15.03359	840.96890	-603.48317	-91.63688	864.83113	-373.18805	-314.27906	908.97604	-354.36586	-286.38204	886.25075	-293.71944	-322.30931	798.25232	-272.52482	-416.39253	690.38375	-262.11294	-436.07241	714.35593	-239.41681	-61.15981	876.15435	-818.21779	-280.26123	908.81326	-860.09477	-243.52826	885.13066	-913.87900	-309.92485	799.24044	-939.53864	-408.29865	722.88338	-950.53335	-424.25223	745.55634	-973.83477	-400.39310	573.64526	-497.96321	-389.73538	570.79504	-705.17752	-380.38754	591.89475	-523.01265	-375.28069	585.48026	-662.46847	
172	1.71000000	-95.73573	412.80562	-416.10548	-56.99152	343.64343	-410.85407	-273.16195	94.79276	-395.77701	-338.42237	64.95844	-437.90328	-181.17584	43.81352	-356.89492	-134.52196	54.80033	-408.67061	-61.72801	404.22430	-745.52358	-42.50958	310.19480	-732.77500	-247.70396	96.48260	-775.52043	-319.73508	59.36724	-739.35932	-160.19047	44.68089	-811.18918	-107.14249	55.84593	-757.83679	-123.23114	252.06669	-397.51397	-113.78273	390.83939	-387.43175	-188.86759	299.51818	-376.14348	-98.47148	364.08227	-777.91201	-160.61865	259.90594	-798.65791	-288.56774	558.88584	-400.64668	-185.46374	515.67160	-401.25789	-230.24861	415.06142	-427.14204	-337.34901	462.48380	-416.23079	-193.78597	445.36500	-401.19225	-274.93284	567.21770	-792.78963	-156.52717	507.95005	-765.34947	-334.10423	471.46503	-790.34479	-213.21557	409.79463	-748.60185	-290.31617	617.26061	-492.69020	-452.60018	732.87773	-573.56840	-282.76962	615.50074	-707.76039	-449.53775	729.56887	-654.43171	-47.46501	964.85647	-598.38139	-10.82022	910.45349	-455.81194	11.99603	898.46480	-729.22736	18.30019	835.85953	-564.68456	19.66518	834.37297	-604.03554	-87.45504	860.14036	-373.92987	-308.96964	908.44947	-358.43251	-282.86146	886.48129	-297.36452	-320.89179	800.02988	-275.27027	-417.56788	693.45742	-265.70343	-437.50286	718.48583	-244.35202	-56.04244	869.71167	-818.90435	-274.47472	906.54767	-858.43253	-239.16584	882.28032	-912.34585	-307.36804	798.33912	-938.30329	-409.11071	722.42076	-946.72746	-423.81200	748.36000	-971.29316	-399.76550	574.75311	-500.47387	-389.54775	573.04902	-707.71956	-380.74066	592.20635	-524.36127	-375.36839	586.40407	-666.17833	
173	1.72000000	-96.60214	413.12694	-415.65925	-57.62723	343.97501	-410.12964	-273.28088	94.84474	-395.69668	-338.47398	64.87921	-437.92085	-181.27133	43.77996	-356.83716	-134.68801	54.97012	-408.48904	-62.12634	404.32324	-745.68910	-42.85510	310.14524	-732.91966	-247.89679	96.28700	-775.87434	-319.73506	58.87884	-739.69113	-160.25527	44.55194	-811.32144	-107.35544	55.91411	-757.96668	-123.83912	252.38412	-396.96676	-114.41550	391.18579	-387.13778	-189.40892	300.05026	-375.67210	-98.76355	364.11668	-778.47297	-160.75956	259.98505	-799.36946	-289.32139	559.73171	-400.60820	-186.42593	516.27229	-400.84542	-231.38943	415.99803	-427.51981	-338.55379	463.75107	-417.62983	-195.07694	445.97237	-401.41970	-273.90255	568.61796	-794.10612	-156.26785	508.28608	-765.79203	-333.94699	473.39761	-791.78010	-213.95657	410.66654	-748.80615	-289.02656	617.34533	-493.23460	-449.63010	735.15687	-574.85239	-282.20397	616.96040	-711.50422	-446.77678	732.30064	-656.07348	-42.02143	959.91741	-599.06262	-5.31398	904.92475	-456.04807	17.71254	892.16303	-730.14425	22.45582	830.07100	-565.24786	23.80752	828.61769	-604.47580	-83.81635	855.74195	-374.74403	-303.95425	907.39814	-362.25234	-279.62794	885.99620	-301.04514	-318.98297	800.70703	-278.36404	-417.32679	695.61732	-269.09667	-437.43720	720.89946	-248.65683	-51.29079	863.64279	-819.55686	-269.02282	903.40009	-857.16838	-234.93910	878.43374	-911.07630	-304.58359	795.93315	-936.99990	-408.35507	720.74062	-944.22568	-422.42866	748.41575	-969.15704	-398.90252	576.18421	-502.77725	-389.07135	575.51613	-710.05119	-380.41202	592.87072	-525.38424	-375.35374	587.80214	-669.32776	
174	1.73000000	-97.13477	413.47345	-415.28160	-58.05080	344.41722	-408.90041	-273.44304	94.84927	-395.58107	-338.52926	64.84544	-437.87659	-181.36970	43.76477	-356.77476	-134.85642	55.05040	-408.35924	-62.35293	404.44043	-745.83293	-43.03715	310.11610	-733.30777	-248.03510	96.22490	-776.47377	-319.74986	58.43408	-740.07972	-160.33513	44.41614	-811.40630	-107.53565	55.98610	-758.10723	-124.35607	252.62581	-396.34698	-114.66345	392.12265	-386.02037	-189.94262	300.67919	-375.21506	-98.79873	364.07393	-779.03112	-160.81330	259.94049	-799.84491	-289.26120	561.30324	-400.71543	-186.70987	517.36611	-400.73532	-232.14864	417.25902	-427.59320	-339.36248	465.29765	-418.66841	-195.82220	447.07788	-401.30255	-272.60228	570.79605	-794.99711	-155.70232	509.10011	-766.33471	-333.54850	476.13517	-793.18721	-214.57995	412.15339	-749.54876	-287.56734	617.79323	-493.72865	-446.66301	737.76594	-575.82705	-280.41877	618.01490	-713.49632	-443.69722	735.05414	-657.22014	-36.97483	955.90321	-599.71067	-0.40027	900.29641	-456.32053	22.81860	886.67988	-730.99290	26.27556	825.48731	-565.73954	27.49351	823.90721	-604.87690	-80.51902	851.75801	-375.32376	-299.47278	905.68977	-365.79342	-276.76626	884.51725	-304.56249	-316.74416	800.00964	-281.45791	-416.25011	695.67627	-272.85520	-436.49834	721.34948	-252.75086	-46.93352	857.98123	-820.26274	-264.13792	899.19970	-856.26327	-231.12953	873.49065	-909.95435	-301.68206	791.98837	-935.95217	-405.92726	717.68924	-943.21829	-420.59107	745.65846	-967.01054	-397.87473	577.95070	-504.27873	-387.79393	577.81537	-711.54192	-379.50345	594.24399	-526.34806	-374.21542	589.40987	-671.29196	
175	1.74000000	-97.27602	413.98489	-414.80940	-58.24178	344.76522	-407.80163	-273.59446	94.78708	-395.42702	-338.59164	64.85210	-437.79916	-181.42858	43.73799	-356.71393	-134.97365	55.08180	-408.30212	-62.32110	404.57026	-746.03642	-43.03216	309.99485	-733.71450	-248.12176	96.19121	-777.04334	-319.84604	58.22767	-740.51082	-160.40756	44.29115	-811.52516	-107.67651	56.05211	-758.20557	-124.66057	252.87028	-395.66046	-114.70657	392.81435	-384.90145	-190.34365	300.99490	-374.77781	-98.56134	363.98182	-779.53268	-160.73131	259.71691	-800.09094	-288.61509	563.54089	-401.23141	-186.18471	518.84528	-400.76848	-232.42032	418.91286	-427.11483	-339.79156	467.07124	-419.35137	-195.95482	448.73030	-400.92403	-271.02971	573.48023	-795.51676	-154.77943	510.32775	-766.96105	-332.81845	479.39520	-794.64004	-214.91599	414.00182	-750.70988	-285.95616	618.64310	-494.10076	-443.78769	740.79083	-576.66663	-278.11723	618.95402	-713.77659	-440.34268	738.02196	-657.87566	-32.29350	952.88231	-600.22073	3.93123	896.64002	-456.33310	27.24552	882.16141	-731.86339	29.82053	822.12664	-566.17878	30.85477	820.39253	-605.29109	-77.58354	848.01437	-375.87809	-295.78663	903.17446	-368.84849	-274.38366	881.92921	-307.63755	-314.56719	797.80730	-284.44651	-414.59472	693.44980	-276.61204	-435.19474	719.57909	-257.03508	-43.10113	852.67503	-820.91064	-260.05215	893.79658	-855.71459	-227.92291	867.59476	-909.32354	-298.69537	786.49402	-935.37225	-402.59710	712.15435	-942.57161	-418.17102	740.30115	-965.20854	-396.84858	580.21110	-505.00969	-386.08378	580.12087	-712.23623	-378.34173	596.28527	-527.30047	-372.19596	591.34680	-672.16497	
